<?xml version="1.0" encoding="iso-8859-1"?>
<!-- Generator: Adobe Illustrator 19.0.0, SVG Export Plug-In . SVG Version: 6.00 Build 0)  -->
<svg version="1.1" id="Capa_1" xmlns="http://www.w3.org/2000/svg" xmlns:xlink="http://www.w3.org/1999/xlink" x="0px" y="0px"
	 viewBox="0 0 496 496" style="enable-background:new 0 0 496 496;" xml:space="preserve">
<g>
	<g>
		<path d="M475.968,151.528C466.144,136.8,449.704,128,432,128h-4.528L352,253.784V184v-8C352,78.952,273.048,0,176,0
			S0,78.952,0,176v8v192c0,13.232,10.768,24,24,24h126.568c-17.6,9.208-36.352,16.2-55.744,20.504
			C81.384,423.488,72,435.184,72,448.952c0,6.264,2.072,12.472,5.832,17.48C91.704,484.944,113.816,496,136.952,496h133.36
			c18.76,0,36.176-9.32,46.592-24.936c12.12-18.176,22.144-37.76,29.824-58.208l4.92-13.136c5.056-13.48,11.24-26.648,18.384-39.144
			l16.536-28.96c1.272-2.224,3.672-3.616,6.248-3.616c3.96,0,7.184,3.224,7.184,7.184V496h48v-70.52
			c0-21.68,2.152-43.464,6.416-64.768l0.544-2.744c5.76-28.784,15.328-56.672,28.448-82.904C491.648,258.6,496,240.152,496,221.736
			v-4.048C496,194.064,489.072,171.184,475.968,151.528z M176,16c88.224,0,160,71.776,160,160h-16c0-79.4-64.6-144-144-144
			S32,96.6,32,176H16C16,87.776,87.776,16,176,16z M304,176H48c0-70.576,57.424-128,128-128S304,105.424,304,176z M16,192h320v57.76
			l-112,28V240h-96v37.76l-112-28V192z M144,272v-16h64v16H144z M208,288v24c0,4.416-3.584,8-8,8h-48c-4.416,0-8-3.584-8-8v-24H208z
			 M24,384c-4.416,0-8-3.584-8-8V266.24l112,28V312c0,13.232,10.768,24,24,24h48c13.232,0,24-10.768,24-24v-17.76l112-28V280h0.272
			l-11.936,19.888c-12.4,20.672-27.328,39.792-44.376,56.832C267.528,369.152,251,376,233.424,376
			c-10.152,0-20.328-2.4-29.376-6.912l-5.112-2.608l-8.432,7.008C185.84,377.376,180.96,381,176,384.496V384H24z M395.352,312.256
			c-0.848-0.096-1.672-0.256-2.536-0.256c-8.296,0-16.016,4.48-20.136,11.68l-16.536,28.96c-7.568,13.224-14.12,27.176-19.48,41.464
			l-4.92,13.136c-2.304,6.144-4.912,12.168-7.656,18.128L324,425.216c-19.528,12.248-40.832,20.992-63.304,25.984
			c-14.312,3.184-29.008,4.8-43.672,4.8H144v16h73.024c15.832,0,31.688-1.744,47.144-5.176c16.24-3.608,31.848-9.192,46.76-16.344
			c-2.352,3.96-4.776,7.872-7.328,11.704C296.152,473.344,283.712,480,270.312,480h-133.36c-10.336,0-20.36-2.896-29.128-8H128v-16
			H90.192C88.84,453.896,88,451.456,88,448.952c0-6.2,4.232-11.48,10.288-12.816c37.512-8.336,72.944-25.752,102.464-50.352
			l0.464-0.392c10.152,4.336,21.192,6.608,32.208,6.608c21.864,0,42.4-8.512,57.856-23.96
			c17.968-17.968,33.712-38.128,46.784-59.912l98.32-163.864c10.64,1.264,20.248,7.104,26.28,16.152
			c8.032,12.056,13.328,25.52,15.768,39.6C447.36,234.696,419.392,272.376,395.352,312.256z M469.096,267.912
			c-13.752,27.504-23.784,56.752-29.824,86.936l-0.544,2.744c-4.464,22.312-6.728,45.16-6.728,67.888V480h-16V335.184
			c0-6.096-2.408-11.6-6.264-15.744c20.632-34.088,44.256-66.464,70.208-96.744C479.792,238.328,476.08,253.944,469.096,267.912z"/>
	</g>
</g>
<g>
</g>
<g>
</g>
<g>
</g>
<g>
</g>
<g>
</g>
<g>
</g>
<g>
</g>
<g>
</g>
<g>
</g>
<g>
</g>
<g>
</g>
<g>
</g>
<g>
</g>
<g>
</g>
<g>
</g>
</svg>
