<?xml version="1.0" encoding="iso-8859-1"?>
<!-- Generator: Adobe Illustrator 19.0.0, SVG Export Plug-In . SVG Version: 6.00 Build 0)  -->
<svg version="1.1" id="Capa_1" xmlns="http://www.w3.org/2000/svg" xmlns:xlink="http://www.w3.org/1999/xlink" x="0px" y="0px"
	 viewBox="0 0 496 496" style="enable-background:new 0 0 496 496;" xml:space="preserve">
<g>
	<g>
		<g>
			<path d="M248,0C111.256,0,0,111.248,0,248s111.256,248,248,248s248-111.248,248-248S384.744,0,248,0z M248,480
				C120.072,480,16,375.92,16,248S120.072,16,248,16s232,104.08,232,232S375.928,480,248,480z"/>
			<path d="M248,48C137.72,48,48,137.72,48,248s89.72,200,200,200c48.784,0,95.76-17.76,132.288-50l-10.584-12
				C336.096,415.664,292.88,432,248,432c-101.456,0-184-82.536-184-184S146.544,64,248,64s184,82.536,184,184
				c0,45.344-16.64,88.912-46.848,122.664l11.92,10.672C429.912,344.64,448,297.288,448,248C448,137.72,358.28,48,248,48z"/>
			<path d="M376,248h16c0-23.352-5.712-45.352-15.624-64.88l21.112-12.192l-8-13.856L368.4,169.248
				c-10.88-16.584-25.072-30.768-41.648-41.648l12.176-21.088l-13.856-8l-12.192,21.112c-17.264-8.76-36.504-14.088-56.88-15.216V80
				h-16v24.416c-16.824,0.92-33.128,4.64-48.584,11.264l-14-20.92l-26.832,15.488l11.104,22.552
				c-13.576,10.184-25.072,22.544-34.144,36.416l-21.04-12.144l-8,13.856l21.024,12.144C109.496,202.928,104,225.104,104,248h16
				c0-39.376,18.136-76.4,48.872-100.608l42.2,85.72c-0.6,1.496-1.28,2.952-1.704,4.536c-2.768,10.32-1.344,21.104,4,30.352
				c5.344,9.248,13.968,15.864,24.288,18.632l30.192,60.768l56.32-32.512L286.64,258.36c2.768-10.32,1.344-21.104-4-30.352
				c-5.344-9.248-13.968-15.864-24.288-18.632c-1.584-0.424-3.184-0.568-4.776-0.8l-53.064-79.288
				C215.608,123.232,231.52,120,248,120C318.576,120,376,177.424,376,248z M277.984,274.248l23.424,35.288l-26.824,15.488
				l-18.808-37.856c4.24-0.848,8.368-2.304,12.224-4.528C271.856,280.408,275.128,277.504,277.984,274.248z M247.96,224.008
				c8.304,0,16.384,4.304,20.824,11.992c3.2,5.552,4.056,12.016,2.4,18.208c-1.664,6.184-5.632,11.368-11.184,14.568
				c-11.456,6.624-26.168,2.68-32.784-8.784c-3.2-5.552-4.056-12.016-2.4-18.208c1.664-6.184,5.632-11.368,11.184-14.568
				C239.768,225.04,243.888,224.008,247.96,224.008z M235.312,210.064c-2.512,0.848-4.96,1.936-7.312,3.296s-4.528,2.936-6.52,4.696
				l-49.928-101.432l0.888-0.512L235.312,210.064z"/>
			<rect x="192" y="360" width="112" height="16"/>
			<rect x="192" y="392" width="80" height="16"/>
			<rect x="288" y="392" width="16" height="16"/>
		</g>
	</g>
</g>
<g>
</g>
<g>
</g>
<g>
</g>
<g>
</g>
<g>
</g>
<g>
</g>
<g>
</g>
<g>
</g>
<g>
</g>
<g>
</g>
<g>
</g>
<g>
</g>
<g>
</g>
<g>
</g>
<g>
</g>
</svg>
