<?xml version="1.0" encoding="iso-8859-1"?>
<!-- Generator: Adobe Illustrator 19.0.0, SVG Export Plug-In . SVG Version: 6.00 Build 0)  -->
<svg version="1.1" id="Capa_1" xmlns="http://www.w3.org/2000/svg" xmlns:xlink="http://www.w3.org/1999/xlink" x="0px" y="0px"
	 viewBox="0 0 512 512" style="enable-background:new 0 0 512 512;" xml:space="preserve">
<g>
	<g>
		<path d="M509.068,261.423l-53.994-53.994c-0.806-0.806-1.727-1.446-2.713-1.923c0-0.002,0.001-0.004,0.001-0.005l-75.417-36.53
			V71.5c0-3.633-1.971-6.98-5.147-8.743l-32.851-18.233c-4.828-2.681-10.917-0.939-13.596,3.891
			c-2.681,4.828-0.938,10.916,3.891,13.596l17.083,9.482l-90.38,50.075L165.579,71.5l90.372-50.071l19.767,10.927
			c4.837,2.672,10.918,0.92,13.59-3.914s0.919-10.918-3.914-13.59l-24.61-13.604c-3.016-1.666-6.673-1.663-9.685,0.005l-111,61.5
			c-3.18,1.762-5.153,5.111-5.153,8.747v97.523L59.638,205.5c0.001,0.001,0.002,0.002,0.004,0.004
			c-0.988,0.478-1.909,1.118-2.716,1.925L2.932,261.423c-2.269,2.27-3.312,5.489-2.802,8.657c0.509,3.168,2.507,5.899,5.372,7.344
			l48.495,24.442V409c0,3.833,2.191,7.329,5.641,9l61.385,29.733c1.404,0.68,2.89,1.002,4.353,1.002
			c3.713,0,7.279-2.077,9.007-5.643c2.407-4.971,0.33-10.951-4.641-13.359l-55.744-27.001v-90.787l120.999,60.984
			c1.43,0.721,2.97,1.07,4.498,1.07c2.594,0,5.153-1.009,7.074-2.929l39.435-39.435v154.411l-51.15-24.776
			c-4.967-2.403-10.95-0.329-13.359,4.641c-2.407,4.971-0.33,10.951,4.641,13.359L251.638,511c1.359,0.658,2.855,1,4.365,1
			c1.51,0,3-0.342,4.359-1l192-93c3.449-1.671,5.641-5.167,5.641-9V301.865l48.495-24.442c2.865-1.444,4.863-4.176,5.372-7.344
			C512.38,266.912,511.337,263.692,509.068,261.423z M265.945,138.892l91-50.419v100.135l-91,50.418V138.892z M154.945,88.472
			l91,50.419v100.135l-91-50.418V88.472z M197.54,351.815L26.851,265.788L66.039,226.6l172.945,83.771L197.54,351.815z M256,296.39
			L86.937,214.5l48.008-23.254v3.254c0,3.635,1.974,6.985,5.154,8.747l111,61.5c1.508,0.835,3.177,1.253,4.847,1.253
			c1.67,0,3.339-0.418,4.847-1.253l111-61.5c3.18-1.762,5.153-5.111,5.153-8.747v-3.307l48.118,23.307L256,296.39z M438.003,402.732
			l-172,83.312V331.642l39.429,39.429c1.921,1.92,4.48,2.929,7.074,2.929c1.528,0,3.069-0.35,4.498-1.07l120.999-60.984V402.732z
			 M314.46,351.815l-41.444-41.444L445.961,226.6l39.188,39.188L314.46,351.815z"/>
	</g>
</g>
<g>
	<g>
		<path d="M164.032,446.96c-1.85-1.861-4.43-2.93-7.069-2.93c-2.63,0-5.21,1.069-7.07,2.93c-1.86,1.859-2.93,4.439-2.93,7.07
			c0,2.63,1.069,5.21,2.93,7.069c1.87,1.86,4.44,2.931,7.07,2.931s5.21-1.07,7.069-2.931c1.86-1.859,2.931-4.439,2.931-7.069
			C166.963,451.399,165.893,448.819,164.032,446.96z"/>
	</g>
</g>
<g>
	<g>
		<path d="M314.272,31.33c-1.859-1.86-4.439-2.931-7.069-2.931c-2.641,0-5.21,1.07-7.07,2.931c-1.86,1.859-2.93,4.43-2.93,7.069
			c0,2.631,1.069,5.21,2.93,7.07c1.861,1.86,4.429,2.93,7.07,2.93c2.63,0,5.21-1.069,7.069-2.93c1.86-1.86,2.931-4.439,2.931-7.07
			C317.203,35.769,316.133,33.189,314.272,31.33z"/>
	</g>
</g>
<g>
	<g>
		<path d="M448.003,12.168c-5.522,0-10,4.478-10,10v64.151c0,5.523,4.477,10,10,10c5.522,0,10-4.478,10-10V22.168
			C458.003,16.646,453.525,12.168,448.003,12.168z"/>
	</g>
</g>
<g>
	<g>
		<path d="M455.072,121.1c-1.859-1.87-4.439-2.93-7.069-2.93s-5.21,1.06-7.07,2.93c-1.86,1.86-2.93,4.44-2.93,7.07
			c0,2.63,1.069,5.21,2.93,7.07c1.86,1.859,4.44,2.93,7.07,2.93s5.21-1.07,7.069-2.93c1.86-1.86,2.931-4.44,2.931-7.07
			C458.003,125.54,456.933,122.96,455.072,121.1z"/>
	</g>
</g>
<g>
	<g>
		<path d="M64.003,53.986c-5.522,0-10,4.478-10,10V89c0,5.522,4.477,10,10,10c5.522,0,10-4.478,10-10V63.986
			C74.003,58.464,69.525,53.986,64.003,53.986z"/>
	</g>
</g>
<g>
	<g>
		<path d="M64.003,123c-5.522,0-10,4.478-10,10v20.653c0,5.523,4.477,10,10,10c5.522,0,10-4.478,10-10V133
			C74.003,127.478,69.525,123,64.003,123z"/>
	</g>
</g>
<g>
</g>
<g>
</g>
<g>
</g>
<g>
</g>
<g>
</g>
<g>
</g>
<g>
</g>
<g>
</g>
<g>
</g>
<g>
</g>
<g>
</g>
<g>
</g>
<g>
</g>
<g>
</g>
<g>
</g>
</svg>
